<?xml version="1.0" encoding="UTF-8" standalone="no"?>
<!-- Created with Inkscape (http://www.inkscape.org/) -->

<svg
   width="210mm"
   height="297mm"
   viewBox="0 0 210 297"
   version="1.1"
   id="svg5"
   xml:space="preserve"
   inkscape:version="1.2.2 (732a01da63, 2022-12-09)"
   sodipodi:docname="favicon_2.svg"
   inkscape:export-filename="favicon_2.png"
   inkscape:export-xdpi="600"
   inkscape:export-ydpi="600"
   xmlns:inkscape="http://www.inkscape.org/namespaces/inkscape"
   xmlns:sodipodi="http://sodipodi.sourceforge.net/DTD/sodipodi-0.dtd"
   xmlns="http://www.w3.org/2000/svg"
   xmlns:svg="http://www.w3.org/2000/svg"><sodipodi:namedview
     id="namedview7"
     pagecolor="#ffffff"
     bordercolor="#999999"
     borderopacity="1"
     inkscape:showpageshadow="0"
     inkscape:pageopacity="0"
     inkscape:pagecheckerboard="0"
     inkscape:deskcolor="#d1d1d1"
     inkscape:document-units="mm"
     showgrid="false"
     inkscape:zoom="1.2623761"
     inkscape:cx="266.16473"
     inkscape:cy="624.21968"
     inkscape:window-width="2560"
     inkscape:window-height="1369"
     inkscape:window-x="1912"
     inkscape:window-y="-8"
     inkscape:window-maximized="1"
     inkscape:current-layer="layer1" /><defs
     id="defs2"><clipPath
   clipPathUnits="userSpaceOnUse"
   id="clipPath5911"><rect
     style="fill:#3e65c1;fill-opacity:0.346097;stroke:none;stroke-width:0.3;paint-order:stroke fill markers;stop-color:#000000"
     id="rect5913"
     width="19.492008"
     height="21.48313"
     x="105.63414"
     y="51.664307" /></clipPath><clipPath
   clipPathUnits="userSpaceOnUse"
   id="clipPath5971"><path
     style="fill:#3e65c1;fill-opacity:0.346097;stroke:none;stroke-width:0.3;paint-order:stroke fill markers;stop-color:#000000"
     d="M 92.744253,25.360575 V 42.33749 l -4.820605,4.611013 -11.63233,0.838366 -3.353466,-10.269984 -2.619894,-12.575493 z"
     id="path5973" /></clipPath><clipPath
   clipPathUnits="userSpaceOnUse"
   id="clipPath5977"><path
     style="fill:#3e65c1;fill-opacity:0.346097;stroke:none;stroke-width:0.3;paint-order:stroke fill markers;stop-color:#000000"
     d="m 106.13428,53.233383 -0.74103,0.629864 0.22231,0.963325 0.77807,1.296781 0.44461,3.779192 -1.07447,6.817365 0.25935,3.149327 -0.48166,1.519087 V 72.4628 l 17.96969,0.296407 1.70434,-4.927769 -0.92628,-6.706214 0.0741,-3.519834 -0.37051,-4.594313 z"
     id="path5979" /></clipPath>
	
</defs><g
     inkscape:label="Layer 1"
     inkscape:groupmode="layer"
     id="layer1"><path
       style="fill:none;fill-opacity:1;stroke:#131739;stroke-width:4;stroke-linejoin:round;stroke-dasharray:none;stroke-opacity:1;paint-order:stroke fill markers;stop-color:#000000"
       d="M 85.012365,143.38423 H 97.902238 V 134.267 h 10.479582 v 6.60213 l 7.00338,1.87655 3.413,-5.91148 9.24347,5.33672 -3.19976,5.54215 5.16771,5.16771 5.53408,-3.1951 4.9031,8.49242 -5.74431,3.31648 1.8751,6.99799 h 6.80602 v 10.20783 h -6.81173 l -1.92707,7.19192 5.89206,3.40178 -4.91779,8.51786 -5.34284,-3.08469 -4.97729,4.9773 3.27721,5.67629 -9.38294,5.41724 -3.24165,-5.6147 -7.33926,1.96655 v 6.65704 H 97.587858 v -9.43162 H 84.907569"
       id="path7258" /><circle
       style="fill:none;fill-opacity:1;stroke:#131739;stroke-width:4;stroke-linejoin:round;stroke-dasharray:none;stroke-opacity:1;paint-order:stroke fill markers;stop-color:#000000"
       id="path7314"
       cx="81.763702"
       cy="143.38423"
       r="4.5062175" /><g
       id="g9861"
       style="fill:#c54256;fill-opacity:1;stroke:#c54256;stroke-width:6.40565;stroke-opacity:1"
       transform="matrix(0.06754057,0,0,0.06754057,96.431678,157.95216)">
		<path
   d="m 416.321,171.943 c 0,-97.8 -82.2,-176.9 -181,-171.7 -89.5,5.2 -160.3,79.1 -162.4,168.6 0,44.7 16.6,86.3 45.8,118.6 47.7,51.1 41.6,110.3 41.6,110.3 0,11.4 9.4,20.8 20.8,20.8 h 126.9 c 11.4,0 20.8,-9.4 21.8,-20.8 0,0 -7,-57.7 40.6,-109.2 29.2,-31.3 45.9,-72.9 45.9,-116.6 z m -128,206 h -87.4 c -2.1,-42.7 -20.8,-84.3 -51,-116.5 -22.9,-25 -34.3,-57.2 -34.3,-90.5 1,-68.7 54.1,-124.8 122.8,-129 74.9,-4.2 137.3,56.2 137.3,130 0,32.3 -12.5,64.5 -35.4,88.4 -31.2,33.3 -49.9,74.9 -52,117.6 z"
   id="path9857"
   style="fill:#c54256;fill-opacity:1;stroke:#c54256;stroke-width:6.40565;stroke-opacity:1" />
		<path
   d="m 281.021,447.643 h -73.9 c -11.4,0 -20.8,9.4 -20.8,20.8 0,11.4 9.4,20.8 20.8,20.8 h 73.9 c 11.4,0 20.8,-9.4 20.8,-20.8 0,-11.4 -9.3,-20.8 -20.8,-20.8 z"
   id="path9859"
   style="fill:#c54256;fill-opacity:1;stroke:#c54256;stroke-width:6.40565;stroke-opacity:1" />
	</g><circle
       style="fill:none;fill-opacity:1;stroke:#131739;stroke-width:4;stroke-linejoin:round;stroke-dasharray:none;stroke-opacity:1;paint-order:stroke fill markers;stop-color:#000000"
       id="circle11980"
       cx="81.763702"
       cy="204.27057"
       r="4.5062175" /><circle
       style="fill:none;fill-opacity:1;stroke:#131739;stroke-width:4;stroke-linejoin:round;stroke-dasharray:none;stroke-opacity:1;paint-order:stroke fill markers;stop-color:#000000"
       id="circle11982"
       cx="66.411644"
       cy="161.51389"
       r="4.5062175" /><circle
       style="fill:none;fill-opacity:1;stroke:#131739;stroke-width:4;stroke-linejoin:round;stroke-dasharray:none;stroke-opacity:1;paint-order:stroke fill markers;stop-color:#000000"
       id="circle11984"
       cx="66.411644"
       cy="187.60803"
       r="4.5062175" /><path
       style="fill:none;fill-opacity:1;stroke:#131739;stroke-width:4;stroke-linecap:round;stroke-linejoin:round;stroke-dasharray:none;stroke-opacity:1;paint-order:stroke fill markers;stop-color:#000000"
       d="m 71.232242,161.3043 22.740678,0 v -7.2309 l 14.25222,0"
       id="path12042"
       sodipodi:nodetypes="cccc" /><path
       style="fill:none;fill-opacity:1;stroke:#131739;stroke-width:4;stroke-linecap:round;stroke-linejoin:round;stroke-dasharray:none;stroke-opacity:1;paint-order:stroke fill markers;stop-color:#000000"
       d="m 71.232242,187.41111 22.740678,0 v 7.2309 l 14.25222,0"
       id="path12044"
       sodipodi:nodetypes="cccc" /><circle
       style="fill:none;fill-opacity:1;stroke:#131739;stroke-width:4;stroke-linejoin:round;stroke-dasharray:none;stroke-opacity:1;paint-order:stroke fill markers;stop-color:#000000"
       id="circle12667"
       cx="79.94091"
       cy="173.37018"
       r="4.5062175" /><path
       style="fill:#131739;fill-opacity:1;stroke:#131739;stroke-width:4;stroke-linecap:round;stroke-linejoin:round;stroke-dasharray:none;stroke-opacity:1;paint-order:stroke fill markers;stop-color:#000000"
       d="m 84.815194,173.3982 10.738217,0"
       id="path12723"
       sodipodi:nodetypes="cc" /></g></svg>
